<svg width="192" height="48" viewBox="0 0 192 48" fill="none" xmlns="http://www.w3.org/2000/svg">
<path d="M7.39319 13.8757H49.9844C49.9844 11.5235 48.0776 9.61658 45.7253 9.61658H11.6523C9.30007 9.61658 7.39319 11.5235 7.39319 13.8757Z" fill="#FF0000"/>
<path d="M55.6633 15.0754C55.6633 14.6174 55.6633 14.3884 55.5616 14.2194C55.5018 14.1202 55.4188 14.0371 55.3196 13.9774C55.1506 13.8757 54.9216 13.8757 54.4636 13.8757H2.56618C2.43429 13.8757 2.36834 13.8757 2.31316 13.8844C2.00942 13.9326 1.7712 14.1708 1.72309 14.4745C1.71436 14.5297 1.71436 14.5956 1.71436 14.7275V16.7151C1.71436 17.4992 2.34998 18.1348 3.13406 18.1348C3.91815 18.1348 4.55377 18.7705 4.55377 19.5545C4.55377 20.3386 5.1894 20.9743 5.97348 20.9743H51.4041C52.1882 20.9743 52.8239 20.3386 52.8239 19.5545C52.8239 18.7705 53.4595 18.1348 54.2436 18.1348H54.7168C55.2395 18.1348 55.6633 17.7111 55.6633 17.1884V15.0754Z" fill="#FF0000"/>
<path fill-rule="evenodd" clip-rule="evenodd" d="M49.9844 13.8757H7.39319V33.1128C7.39319 37.6927 7.39319 39.9827 8.41029 41.6721C9.00753 42.6641 9.83838 43.495 10.8304 44.0922C12.5198 45.1093 14.8098 45.1093 19.3897 45.1093H37.9879C42.5679 45.1093 44.8578 45.1093 46.5472 44.0922C47.5392 43.495 48.3701 42.6641 48.9673 41.6721C49.9844 39.9827 49.9844 37.6927 49.9844 33.1128V13.8757ZM28.6888 35.1714C33.1254 33.3241 35.7874 30.5532 35.7874 27.7823C35.7874 23.7014 30.4634 22.2403 28.6888 25.9349C26.9142 22.2403 21.5903 23.7013 21.5903 27.7822C21.5903 30.5533 24.2522 33.3241 28.6888 35.1714Z" fill="#FF0000"/>
<path d="M27.2691 6.77716H30.1085V9.61658H27.2691V6.77716Z" fill="#FF0000"/>
<path d="M28.603 4.26172C33.0725 4.26172 33.7553 4.90056 33.7553 5.94594C33.7553 6.84613 33.1656 7.71729 28.603 7.71729C23.9783 7.71729 23.3886 6.84613 23.3886 5.94594C23.3886 4.90056 24.1025 4.26172 28.603 4.26172Z" fill="#FF0000"/>
<path d="M78.0832 8.19531C78.1286 9.73996 78.1513 11.9888 78.1513 13.9423C77.6516 13.965 77.1064 13.965 76.584 13.965C76.0388 13.965 75.4936 13.965 74.9939 13.9423C74.9939 11.9888 75.0166 9.73996 75.062 8.19531H67.9976C68.0657 10.6031 68.0657 13.1018 68.0657 16.7136C68.0657 20.3253 68.0657 22.7786 67.9976 25.2318H75.062C75.0166 23.6645 74.9939 21.4611 74.9939 19.553C75.4936 19.5303 76.0388 19.5303 76.584 19.5303C77.1064 19.5303 77.6516 19.5303 78.1513 19.553C78.1513 21.4611 78.1286 23.6645 78.0832 25.2318H85.1704C85.1022 22.7558 85.0795 20.3253 85.0795 16.7136C85.0795 13.1018 85.1022 10.6031 85.1704 8.19531H78.0832Z" fill="black"/>
<path d="M94.525 13.9196C95.5017 13.9196 95.8425 14.4647 95.8425 16.123C95.8425 16.3274 95.8425 16.5091 95.8198 16.7136C94.6386 16.7363 93.7527 16.7136 93.0258 16.6908C93.1621 14.3966 93.6164 13.9196 94.525 13.9196ZM98.4093 20.0527C97.2963 20.0527 96.2968 20.03 95.7289 19.9846C95.7289 21.2339 95.4563 21.7791 94.5023 21.7791C93.4574 21.7791 93.0485 21.0976 92.9803 18.9397C93.7527 18.9169 94.8203 18.9169 96.0015 18.9169C97.8414 18.9169 99.9767 18.9169 101.612 18.9624C101.68 18.3718 101.748 17.3723 101.748 16.1002C101.748 12.1478 100.34 10.3533 94.525 10.3533C89.0279 10.3533 86.5292 12.0342 86.5292 17.9629C86.5292 23.5282 88.8007 25.5271 94.2524 25.5271C100.84 25.5271 101.839 23.619 101.658 19.9846C100.704 20.03 99.5678 20.0527 98.4093 20.0527Z" fill="black"/>
<path d="M109.992 21.6201C109.083 21.6201 108.742 21.3021 108.742 20.3253C108.742 19.4621 109.197 19.1668 110.355 19.1668C110.719 19.1668 111.082 19.1895 111.445 19.2122C111.445 20.9613 110.946 21.6201 109.992 21.6201ZM111.468 17.395C110.855 17.3042 110.128 17.2814 109.265 17.2814C104.744 17.2814 102.791 18.4399 102.791 21.5065C102.791 24.5049 104.267 25.4135 107.084 25.4135C109.401 25.4135 110.946 24.5958 111.491 22.824H111.604C111.582 23.1874 111.559 23.5509 111.559 23.8235C111.559 25.141 111.763 25.2318 112.922 25.2318H118.078C117.851 24.5958 117.76 22.6195 117.76 21.0749C117.76 19.2122 117.806 17.8266 117.806 15.6914C117.806 12.0796 115.67 10.376 110.537 10.376C105.017 10.376 103.063 12.1705 103.2 16.6908C103.881 16.6227 105.085 16.6 106.289 16.6C107.266 16.6 108.243 16.6 108.856 16.6681C108.697 15.2825 109.265 14.8282 110.196 14.8282C111.127 14.8282 111.468 15.2598 111.468 16.2365V17.395Z" fill="black"/>
<path d="M124.841 13.7833C124.863 12.6929 124.932 11.7162 124.977 10.6486H119.571C119.639 12.6929 119.616 14.7828 119.616 17.8493C119.616 21.0068 119.616 23.1874 119.571 25.2318H126.749C126.635 23.6645 126.613 21.9381 126.613 20.348C126.613 18.5762 127.09 17.9402 128.407 17.9175C128.861 17.9175 129.293 18.0083 129.702 18.1446C129.725 15.3961 129.815 13.0564 129.997 10.6259C129.611 10.5577 129.202 10.5123 128.725 10.5123C127.021 10.4896 125.658 11.3755 125.022 13.806L124.841 13.7833Z" fill="black"/>
<path d="M138.012 16.0775C140.011 16.1002 141.76 16.1457 142.555 16.1684C142.532 14.3057 142.623 12.4431 142.669 10.6486C141.374 10.694 139.784 10.694 138.125 10.7167C138.148 9.83082 138.194 9.01306 138.216 8.24074C137.194 8.28617 136.058 8.30889 134.945 8.30889C133.832 8.30889 132.765 8.28617 131.742 8.24074C131.742 8.99035 131.742 9.8081 131.72 10.6713L130.47 10.6486C130.516 12.1705 130.493 14.2376 130.47 15.964L131.629 15.9867C131.583 17.4177 131.561 18.7807 131.561 19.8256C131.561 23.3237 133.015 25.4362 138.194 25.4362C140.056 25.4362 141.533 25.2545 142.987 24.8911C142.759 23.0966 142.532 20.4616 142.464 18.8034C141.714 19.0305 140.738 19.1441 139.557 19.1441C138.421 19.1441 138.012 18.8715 138.012 18.0765V16.0775Z" fill="black"/>
<path d="M153.12 10.6486C153.075 11.5118 152.757 13.8287 152.439 15.9867C152.235 17.3269 152.03 18.5762 151.848 19.6211H151.735C151.576 18.5762 151.417 17.3269 151.19 16.0094C150.849 13.8287 150.576 11.5345 150.508 10.6486H143.376C144.193 13.6924 145.761 20.8478 146.124 22.4151C146.806 22.3697 148.873 22.3924 151.076 22.3924L151.053 22.4605C150.781 23.3464 150.258 23.6645 148.85 23.6645C147.373 23.6645 145.306 23.4373 144.057 22.9603C144.012 23.8007 143.625 26.9582 143.489 27.7986C145.102 28.2302 146.851 28.5255 149.463 28.5255C154.211 28.5255 156.119 26.731 157.141 22.2788C157.732 19.7574 159.072 12.8065 159.64 10.6486H153.12Z" fill="black"/>
<path d="M78.1286 28.0712C77.7879 29.1616 77.3108 30.7744 76.4249 33.0686C76.0615 33.8409 75.6526 34.7268 75.221 35.6127H75.062C75.062 32.9096 75.0847 30.2292 75.1529 28.0712H67.9976C68.0657 30.5018 68.0884 32.9777 68.0884 36.5895C68.0884 40.2239 68.0657 42.6318 67.9976 45.1077H75.1529C75.1075 43.2451 75.0847 41.1325 75.062 38.7929H75.2892C76.1978 40.1558 77.061 42.6318 77.6516 44.29C77.8106 44.9033 78.1286 45.1077 78.9009 45.1077H85.6019C85.2612 44.3354 84.716 42.6772 83.603 39.9513C83.1033 38.4521 82.3536 37.2937 80.4228 36.8621C82.967 35.7036 84.3072 30.8198 85.5565 28.0712H78.1286Z" fill="black"/>
<path d="M93.7406 28.3892C93.7406 27.5715 93.2409 27.0718 89.9699 27.0718C86.6761 27.0718 86.1537 27.5715 86.1537 28.3892C86.1537 29.0934 86.5853 29.7749 89.9699 29.7749C93.309 29.7749 93.7406 29.0934 93.7406 28.3892ZM93.3317 45.1077C93.2636 43.0406 93.2636 41.1098 93.2636 38.0433C93.2636 34.9313 93.2636 32.7506 93.3317 30.5245H86.5626C86.608 32.7052 86.6307 34.954 86.6307 37.5435C86.6307 40.2921 86.6534 42.9498 86.5626 45.1077H93.3317Z" fill="black"/>
<path d="M102.031 35.9534C104.03 35.9762 105.779 36.0216 106.574 36.0443C106.552 34.1817 106.642 32.319 106.688 30.5245C105.393 30.5699 103.803 30.5699 102.145 30.5926C102.167 29.7067 102.213 28.889 102.236 28.1167C101.213 28.1621 100.078 28.1848 98.9646 28.1848C97.8515 28.1848 96.7839 28.1621 95.7617 28.1167C95.7617 28.8663 95.7617 29.684 95.739 30.5472L94.4897 30.5245C94.5351 32.0464 94.5124 34.1135 94.4897 35.8399L95.6482 35.8626C95.6027 37.2936 95.58 38.6566 95.58 39.7015C95.58 43.1996 97.0338 45.3122 102.213 45.3122C104.076 45.3122 105.552 45.1304 107.006 44.767C106.779 42.9725 106.552 40.3375 106.483 38.6793C105.734 38.9064 104.757 39.02 103.576 39.02C102.44 39.02 102.031 38.7474 102.031 37.9524V35.9534Z" fill="black"/>
<path d="M117.117 39.02C117.117 40.0649 116.776 40.8145 115.822 40.8145C114.686 40.8145 114.323 40.1104 114.323 37.5662C114.323 34.8631 114.755 34.3179 115.799 34.3179C116.776 34.3179 117.072 34.8177 117.094 36.2033C117.094 36.3623 117.072 36.5668 117.072 36.7939C117.708 36.7485 118.798 36.7258 119.956 36.7258C121.228 36.7258 122.296 36.7485 123.137 36.7939C123.205 36.2942 123.205 35.8626 123.205 35.4537C123.205 31.365 121.092 30.2292 115.572 30.2292C110.053 30.2292 107.781 31.8874 107.781 37.5208C107.781 43.4268 109.78 45.403 115.572 45.403C121.138 45.403 123.25 43.9038 123.25 39.4743C123.25 39.1109 123.227 38.7474 123.182 38.3386C122.114 38.3613 121.069 38.4067 119.934 38.4067C118.843 38.4067 117.935 38.384 117.117 38.3386V39.02Z" fill="black"/>
<path d="M140.575 45.1077C140.507 43.6312 140.507 42.2002 140.507 40.4284C140.507 38.5884 140.552 37.1574 140.552 34.4542C140.552 31.4785 138.826 30.2746 136.1 30.2746C133.761 30.2746 132.239 31.1151 131.421 33.0005L131.262 32.9323C131.285 32.1373 131.307 31.4331 131.307 30.6153C131.307 29.525 131.33 28.6845 131.375 27.5261H124.584C124.629 30.1383 124.652 33.3866 124.652 37.2482C124.652 40.701 124.629 42.8362 124.584 45.1077H131.353C131.307 43.6539 131.307 42.2683 131.307 37.907C131.307 36.1806 131.921 35.6127 132.761 35.6127C133.556 35.6127 133.874 36.0216 133.874 37.0438C133.874 40.4738 133.874 43.0861 133.806 45.1077H140.575Z" fill="black"/>
<path d="M149.783 33.7955C150.759 33.7955 151.1 34.3407 151.1 35.9989C151.1 36.2033 151.1 36.385 151.077 36.5895C149.896 36.6122 149.01 36.5895 148.283 36.5668C148.42 34.2725 148.874 33.7955 149.783 33.7955ZM153.667 39.9286C152.554 39.9286 151.554 39.9059 150.987 39.8605C150.987 41.1098 150.714 41.655 149.76 41.655C148.715 41.655 148.306 40.9735 148.238 38.8156C149.01 38.7929 150.078 38.7929 151.259 38.7929C153.099 38.7929 155.234 38.7929 156.87 38.8383C156.938 38.2477 157.006 37.2482 157.006 35.9762C157.006 32.0237 155.598 30.2292 149.783 30.2292C144.286 30.2292 141.787 31.9101 141.787 37.8388C141.787 43.4041 144.058 45.403 149.51 45.403C156.098 45.403 157.097 43.4949 156.915 39.8605C155.961 39.9059 154.825 39.9286 153.667 39.9286Z" fill="black"/>
<path d="M174.426 45.1077C174.358 43.5858 174.358 42.1093 174.358 40.2694C174.358 38.543 174.381 37.1801 174.381 34.5224C174.381 31.4785 172.723 30.32 169.929 30.32C167.634 30.32 166.09 31.1378 165.249 33.0459L165.09 33.0005L165.158 30.5245H158.435C158.48 32.5689 158.503 34.7041 158.503 37.748C158.503 40.9735 158.48 42.9725 158.435 45.1077H165.181C165.136 43.6539 165.136 42.2002 165.136 37.8388C165.136 36.1579 165.772 35.6127 166.59 35.6127C167.385 35.6127 167.703 36.0443 167.703 37.0438C167.703 40.4511 167.703 43.0861 167.657 45.1077H174.426Z" fill="black"/>
<path d="M181.112 40.2239C180.635 40.2466 179.977 40.2694 179.25 40.2694C177.682 40.2694 176.66 40.1785 175.82 40.1103C175.774 40.4965 175.752 40.86 175.752 41.178C175.752 44.1537 177.183 45.403 183.134 45.403C188.563 45.403 190.539 44.1082 190.539 40.8145C190.539 37.7934 189.267 36.7712 185.133 36.067C182.68 35.6809 182.271 35.2947 182.271 34.5678C182.271 34.0226 182.612 33.7501 183.543 33.7501C184.565 33.7501 184.86 34.1362 184.86 34.9085V35.2266C185.292 35.1811 185.996 35.1811 186.769 35.1811C187.995 35.1811 189.404 35.2266 190.267 35.3174C190.289 34.9767 190.312 34.6587 190.312 34.3407C190.312 31.4331 188.813 30.2519 183.066 30.2519C177.841 30.2519 175.683 31.3649 175.683 34.7268C175.683 37.5435 176.683 38.8383 180.953 39.4289C183.225 39.7469 183.838 40.0876 183.838 40.9054C183.838 41.5414 183.498 41.814 182.566 41.814C181.476 41.814 181.112 41.3824 181.112 40.5647V40.2239Z" fill="black"/>
</svg>
