<svg width="120" height="60" viewBox="0 0 120 60" fill="none" xmlns="http://www.w3.org/2000/svg">
<path d="M59.4083 0.677227L51.3913 37.7775H41.6946L49.7144 0.677227H59.4083ZM100.208 24.6327L105.315 10.6996L108.251 24.6327H100.208ZM111.027 37.7775H120L112.171 0.677227H103.89C103.006 0.669621 102.14 0.9248 101.404 1.40973C100.668 1.89466 100.097 2.58702 99.7626 3.39723L85.2175 37.7775H95.3937L97.4183 32.2265H109.857L111.027 37.7775V37.7775ZM85.7195 25.6652C85.7587 15.8732 72.0381 15.332 72.1335 10.955C72.1587 9.62272 73.443 8.20721 76.2443 7.84639C77.6464 7.66598 81.46 7.52721 85.8064 9.5117L87.5085 1.64588C84.608 0.566463 81.5359 0.00906673 78.4372 0C68.8554 0 62.1087 5.04312 62.0526 12.2678C61.9909 17.6051 66.8673 20.5943 70.5435 22.3623C74.3207 24.1803 75.591 25.346 75.5714 26.9725C75.5461 29.4704 72.5569 30.5584 69.7724 30.6028C64.896 30.6806 62.0638 29.3011 59.8093 28.2603L58.0511 36.3898C60.3168 37.4195 64.5006 38.316 68.8386 38.3604C79.0204 38.3604 85.6858 33.3645 85.7195 25.668V25.6652ZM45.5559 0.688323L29.8528 37.7887H19.5981L11.8699 8.17946C11.3988 6.35594 10.9922 5.68148 9.56208 4.92098C7.23465 3.66645 3.393 2.49241 0 1.76522L0.229924 0.688323H16.7294C18.8325 0.688323 20.7225 2.07608 21.216 4.46857L25.2989 25.94L35.3937 0.682783L45.5559 0.688323Z" fill="#1F1A71"/>
<path d="M31.8634 59.3939C31.2717 59.6964 30.0323 59.999 28.4704 59.999C24.8475 59.999 22.1387 57.7342 22.1387 53.5459C22.1387 49.5436 24.8671 46.8652 28.8518 46.8652C30.4333 46.8652 31.4624 47.2038 31.9026 47.4203L31.482 48.7609C30.6747 48.3965 29.795 48.2163 28.9079 48.2336C25.8962 48.2336 23.8941 50.1403 23.8941 53.4793C23.8941 56.6129 25.7055 58.5946 28.8125 58.5946C29.7483 58.6093 30.6768 58.4297 31.5381 58.0672L31.8634 59.3856V59.3939Z" fill="#1F1A71"/>
<path d="M35.2142 55.2446C35.2142 57.2429 36.3583 58.7528 37.9959 58.7528C39.6335 58.7528 40.8 57.2624 40.8 55.2057C40.8 53.657 40.0177 51.7141 38.0351 51.7141C36.0526 51.7141 35.2142 53.5265 35.2142 55.2446ZM42.5049 55.1502C42.5049 58.528 40.1214 59.999 37.9089 59.999C35.4329 59.999 33.4868 58.1866 33.4868 55.3001C33.4868 52.2609 35.5254 50.4707 38.0632 50.4707C40.7131 50.4707 42.5049 52.3775 42.5049 55.1502V55.1502Z" fill="#1F1A71"/>
<path d="M45.1158 53.1288C45.1158 52.1657 45.0765 51.4136 45.04 50.6586H46.5066L46.5851 52.1463H46.6412C46.9221 51.6273 47.3441 51.1963 47.8594 50.902C48.3747 50.6077 48.9629 50.4619 49.5575 50.481C50.1291 50.4778 50.6872 50.6528 51.1528 50.981C51.6183 51.3093 51.9677 51.7743 52.1513 52.3101H52.1878C52.4454 51.8421 52.8045 51.4364 53.2393 51.1222C53.8146 50.679 54.5299 50.4519 55.2583 50.481C56.4977 50.481 58.3092 51.272 58.3092 54.4417V59.8012H56.6688V54.6387C56.6688 52.8652 56.0042 51.8271 54.6666 51.8271C54.2197 51.8448 53.789 51.9969 53.4317 52.2632C53.0745 52.5295 52.8078 52.8973 52.6673 53.3176C52.5798 53.5867 52.5344 53.8675 52.5327 54.1502V59.7901H50.8923V54.3196C50.8923 52.8652 50.2445 51.8216 48.9686 51.8216C47.9367 51.8216 47.1571 52.6542 46.888 53.4869C46.7932 53.7475 46.7485 54.0233 46.7562 54.3001V59.7901H45.1158V53.1288V53.1288Z" fill="#1F1A71"/>
<path d="M61.497 53.129C61.497 52.1658 61.4577 51.4137 61.4185 50.6588H62.8878L62.9635 52.1464H63.0196C63.301 51.6271 63.7235 51.1961 64.2393 50.9018C64.7551 50.6075 65.3437 50.4618 65.9387 50.4811C66.5103 50.4779 67.0684 50.6529 67.534 50.9811C67.9995 51.3094 68.3489 51.7744 68.5325 52.3102H68.569C68.825 51.842 69.1833 51.4361 69.6177 51.1223C70.1938 50.6785 70.9102 50.4513 71.6395 50.4811C72.879 50.4811 74.6904 51.2721 74.6904 54.4418V59.8013H73.05V54.6388C73.05 52.8653 72.3826 51.8272 71.0479 51.8272C70.6006 51.8447 70.1694 51.9968 69.8117 52.2631C69.454 52.5294 69.1868 52.8972 69.0457 53.3177C68.9598 53.5872 68.9144 53.8678 68.9111 54.1503V59.7902H67.2707V54.3197C67.2707 52.8653 66.6229 51.8217 65.347 51.8217C64.3179 51.8217 63.5356 52.6544 63.2692 53.487C63.1735 53.7474 63.1278 54.0232 63.1346 54.3002V59.7902H61.497V53.129V53.129Z" fill="#1F1A71"/>
<path d="M83.7258 54.3398C83.7426 53.299 83.2883 51.6586 81.3983 51.6586C79.6822 51.6586 78.9588 53.1879 78.8242 54.3398H83.7258ZM78.8045 55.5277C78.8438 57.7731 80.2739 58.6973 81.9704 58.6973C82.8465 58.7264 83.7184 58.5654 84.525 58.2255L84.8306 59.4134C83.8558 59.8224 82.8045 60.022 81.7461 59.999C78.9083 59.999 77.209 58.1311 77.209 55.375C77.209 52.6189 78.8494 50.4707 81.5385 50.4707C84.5698 50.4707 85.3522 53.0741 85.3522 54.7533C85.3576 55.0126 85.3388 55.2718 85.2961 55.5277H78.8045Z" fill="#1F1A71"/>
<path d="M87.904 53.5071C87.904 52.433 87.8871 51.506 87.8311 50.6594H89.2976L89.3733 52.4691H89.4294C89.85 51.2423 90.8792 50.4707 92.0064 50.4707C92.1585 50.4723 92.3103 50.4843 92.4607 50.5068V52.0722C92.2755 52.0409 92.0876 52.0288 91.8999 52.0361C90.7165 52.0361 89.8781 52.902 89.6565 54.151C89.6183 54.4065 89.5996 54.6644 89.6004 54.9226V59.7909H87.918V53.5071H87.904Z" fill="#1F1A71"/>
<path d="M101.005 59.4725C100.169 59.8305 99.2657 60.0102 98.3548 59.9998C95.5703 59.9998 93.7588 58.1319 93.7588 55.3397C93.7588 52.5476 95.702 50.4715 98.7165 50.4715C99.5188 50.4577 100.314 50.6247 101.041 50.96L100.66 52.2256C100.058 51.9255 99.3903 51.7768 98.7165 51.7926C96.5994 51.7926 95.4553 53.358 95.4553 55.2454C95.4553 57.3575 96.8293 58.662 98.6576 58.662C99.3687 58.6697 100.073 58.5209 100.719 58.2263L100.999 59.4725H101.005Z" fill="#1F1A71"/>
<path d="M103.445 59.79V50.6585H105.127V59.79H103.445ZM105.312 48.0912C105.317 48.2293 105.292 48.3668 105.24 48.4949C105.187 48.6229 105.108 48.7387 105.008 48.8347C104.908 48.9307 104.788 49.0048 104.657 49.0522C104.526 49.0995 104.386 49.1192 104.247 49.1098C104.111 49.1133 103.977 49.0893 103.851 49.0391C103.726 48.989 103.612 48.9138 103.517 48.8182C103.422 48.7227 103.348 48.6089 103.299 48.4838C103.251 48.3587 103.228 48.2251 103.234 48.0912C103.231 47.9537 103.256 47.8169 103.307 47.6892C103.359 47.5616 103.436 47.4456 103.535 47.3485C103.633 47.2514 103.75 47.1751 103.88 47.1243C104.009 47.0735 104.147 47.0493 104.286 47.0531C104.423 47.0499 104.56 47.0748 104.688 47.1261C104.815 47.1775 104.931 47.2542 105.027 47.3515C105.123 47.4489 105.198 47.5647 105.247 47.692C105.296 47.8192 105.318 47.9551 105.312 48.0912V48.0912Z" fill="#1F1A71"/>
<path d="M113.247 55.1315C111.413 55.0926 109.338 55.409 109.338 57.1881C109.338 58.2844 110.062 58.7729 110.9 58.7729C111.393 58.7889 111.879 58.6494 112.287 58.3745C112.694 58.0996 113.003 57.7036 113.169 57.2436C113.221 57.0726 113.247 56.8949 113.247 56.7163V55.1315V55.1315ZM114.868 57.6017C114.859 58.3338 114.903 59.0656 115 59.7915H113.494L113.36 58.6425H113.303C112.975 59.0736 112.549 59.4215 112.058 59.6575C111.568 59.8934 111.028 60.0107 110.482 59.9997C108.612 59.9997 107.659 58.698 107.659 57.3769C107.659 55.1703 109.641 53.963 113.208 53.9796V53.7909C113.208 53.0554 112.998 51.6787 111.111 51.6954C110.254 51.6865 109.414 51.9237 108.691 52.3782L108.309 51.2679C109.235 50.7386 110.288 50.4654 111.357 50.4769C114.178 50.4769 114.868 52.3837 114.868 54.1933V57.6072V57.6017Z" fill="#1F1A71"/>
<path d="M118.054 46.3926H119.731V59.79H118.054V46.3926Z" fill="#1F1A71"/>
</svg>
